<?xml version="1.0" standalone="no"?>
<!DOCTYPE svg PUBLIC "-//W3C//DTD SVG 20010904//EN"
 "http://www.w3.org/TR/2001/REC-SVG-20010904/DTD/svg10.dtd">
<svg version="1.0" xmlns="http://www.w3.org/2000/svg"
 width="600.000000pt" height="600.000000pt" viewBox="0 0 600.000000 600.000000"
 preserveAspectRatio="xMidYMid meet">
<metadata>
Created by potrace 1.14, written by Peter Selinger 2001-2017
</metadata>
<g transform="translate(0.000000,600.000000) scale(0.100000,-0.100000)"
fill="#000000" stroke="none">
<path d="M2818 5445 c-2 -2 -34 -6 -73 -9 -161 -13 -293 -40 -464 -92 -343
-106 -648 -289 -913 -546 -268 -261 -459 -563 -578 -917 -77 -228 -114 -467
-114 -726 1 -116 11 -292 19 -305 2 -3 6 -30 10 -60 20 -159 92 -398 176 -578
22 -46 39 -86 39 -87 0 -19 143 -245 215 -341 267 -354 627 -620 1044 -774 84
-31 276 -84 341 -95 19 -3 49 -8 65 -11 186 -34 521 -38 696 -9 13 2 41 6 61
9 181 27 439 111 626 203 245 122 428 255 627 456 217 221 376 461 488 742 83
206 125 379 156 630 9 72 7 440 -2 485 -3 14 -8 43 -11 65 -3 22 -7 50 -10 61
-2 12 -7 37 -10 55 -55 330 -232 707 -471 1004 -156 193 -406 408 -620 532
-39 23 -231 118 -270 135 -188 79 -396 132 -640 164 -50 7 -381 14 -387 9z"/>
</g>
</svg>
